<mxfile host="app.diagrams.net" agent="Mozilla/5.0 (Windows NT 10.0; Win64; x64; rv:128.0) Gecko/20100101 Firefox/128.0" version="28.0.6">
  <diagram name="Page-1" id="TpYIxcQUVteYVsvcsJ7T">
    <mxGraphModel dx="786" dy="427" grid="1" gridSize="10" guides="1" tooltips="1" connect="1" arrows="1" fold="1" page="1" pageScale="1" pageWidth="850" pageHeight="1100" math="0" shadow="0">
      <root>
        <mxCell id="0" />
        <mxCell id="1" parent="0" />
        <mxCell id="0tyjuDTHWecdtASstA0M-1" value="" style="sketch=0;points=[[0,0,0],[0.25,0,0],[0.5,0,0],[0.75,0,0],[1,0,0],[0,1,0],[0.25,1,0],[0.5,1,0],[0.75,1,0],[1,1,0],[0,0.25,0],[0,0.5,0],[0,0.75,0],[1,0.25,0],[1,0.5,0],[1,0.75,0]];outlineConnect=0;fontColor=#232F3E;fillColor=#E7157B;strokeColor=#ffffff;dashed=0;verticalLabelPosition=bottom;verticalAlign=top;align=center;html=1;fontSize=12;fontStyle=0;aspect=fixed;shape=mxgraph.aws4.resourceIcon;resIcon=mxgraph.aws4.eventbridge;" vertex="1" parent="1">
          <mxGeometry x="201" y="41" width="78" height="78" as="geometry" />
        </mxCell>
        <mxCell id="0tyjuDTHWecdtASstA0M-2" value="" style="outlineConnect=0;dashed=0;verticalLabelPosition=bottom;verticalAlign=top;align=center;html=1;shape=mxgraph.aws3.lambda_function;fillColor=#F58534;gradientColor=none;" vertex="1" parent="1">
          <mxGeometry x="200" y="160" width="80" height="80" as="geometry" />
        </mxCell>
        <mxCell id="0tyjuDTHWecdtASstA0M-3" value="" style="points=[];aspect=fixed;html=1;align=center;shadow=0;dashed=0;fillColor=#FF6A00;strokeColor=none;shape=mxgraph.alibaba_cloud.domain_and_website;" vertex="1" parent="1">
          <mxGeometry x="340" y="140" width="51.3" height="41.4" as="geometry" />
        </mxCell>
        <mxCell id="0tyjuDTHWecdtASstA0M-4" value="" style="sketch=0;points=[[0,0,0],[0.25,0,0],[0.5,0,0],[0.75,0,0],[1,0,0],[0,1,0],[0.25,1,0],[0.5,1,0],[0.75,1,0],[1,1,0],[0,0.25,0],[0,0.5,0],[0,0.75,0],[1,0.25,0],[1,0.5,0],[1,0.75,0]];outlineConnect=0;fontColor=#232F3E;fillColor=#01A88D;strokeColor=#ffffff;dashed=0;verticalLabelPosition=bottom;verticalAlign=top;align=center;html=1;fontSize=12;fontStyle=0;aspect=fixed;shape=mxgraph.aws4.resourceIcon;resIcon=mxgraph.aws4.bedrock;" vertex="1" parent="1">
          <mxGeometry x="340" y="210" width="50" height="50" as="geometry" />
        </mxCell>
        <mxCell id="0tyjuDTHWecdtASstA0M-5" value="" style="sketch=0;points=[[0,0,0],[0.25,0,0],[0.5,0,0],[0.75,0,0],[1,0,0],[0,1,0],[0.25,1,0],[0.5,1,0],[0.75,1,0],[1,1,0],[0,0.25,0],[0,0.5,0],[0,0.75,0],[1,0.25,0],[1,0.5,0],[1,0.75,0]];outlineConnect=0;fontColor=#232F3E;fillColor=#7AA116;strokeColor=#ffffff;dashed=0;verticalLabelPosition=bottom;verticalAlign=top;align=center;html=1;fontSize=12;fontStyle=0;aspect=fixed;shape=mxgraph.aws4.resourceIcon;resIcon=mxgraph.aws4.s3;" vertex="1" parent="1">
          <mxGeometry x="200" y="280" width="80" height="80" as="geometry" />
        </mxCell>
        <mxCell id="0tyjuDTHWecdtASstA0M-6" value="" style="sketch=0;points=[[0,0,0],[0.25,0,0],[0.5,0,0],[0.75,0,0],[1,0,0],[0,1,0],[0.25,1,0],[0.5,1,0],[0.75,1,0],[1,1,0],[0,0.25,0],[0,0.5,0],[0,0.75,0],[1,0.25,0],[1,0.5,0],[1,0.75,0]];outlineConnect=0;fontColor=#232F3E;fillColor=#E7157B;strokeColor=#ffffff;dashed=0;verticalLabelPosition=bottom;verticalAlign=top;align=center;html=1;fontSize=12;fontStyle=0;aspect=fixed;shape=mxgraph.aws4.resourceIcon;resIcon=mxgraph.aws4.eventbridge;" vertex="1" parent="1">
          <mxGeometry x="520" y="401" width="78" height="78" as="geometry" />
        </mxCell>
        <mxCell id="0tyjuDTHWecdtASstA0M-7" value="" style="sketch=0;points=[[0,0,0],[0.25,0,0],[0.5,0,0],[0.75,0,0],[1,0,0],[0,1,0],[0.25,1,0],[0.5,1,0],[0.75,1,0],[1,1,0],[0,0.25,0],[0,0.5,0],[0,0.75,0],[1,0.25,0],[1,0.5,0],[1,0.75,0]];outlineConnect=0;fontColor=#232F3E;fillColor=#01A88D;strokeColor=#ffffff;dashed=0;verticalLabelPosition=bottom;verticalAlign=top;align=center;html=1;fontSize=12;fontStyle=0;aspect=fixed;shape=mxgraph.aws4.resourceIcon;resIcon=mxgraph.aws4.bedrock;" vertex="1" parent="1">
          <mxGeometry x="340" y="400" width="80" height="80" as="geometry" />
        </mxCell>
        <mxCell id="0tyjuDTHWecdtASstA0M-8" value="" style="sketch=0;points=[[0,0,0],[0.25,0,0],[0.5,0,0],[0.75,0,0],[1,0,0],[0,1,0],[0.25,1,0],[0.5,1,0],[0.75,1,0],[1,1,0],[0,0.25,0],[0,0.5,0],[0,0.75,0],[1,0.25,0],[1,0.5,0],[1,0.75,0]];outlineConnect=0;fontColor=#232F3E;fillColor=#8C4FFF;strokeColor=#ffffff;dashed=0;verticalLabelPosition=bottom;verticalAlign=top;align=center;html=1;fontSize=12;fontStyle=0;aspect=fixed;shape=mxgraph.aws4.resourceIcon;resIcon=mxgraph.aws4.elasticsearch_service;" vertex="1" parent="1">
          <mxGeometry x="190" y="400" width="78" height="78" as="geometry" />
        </mxCell>
        <mxCell id="0tyjuDTHWecdtASstA0M-9" value="Amazon EventBridge" style="text;html=1;align=center;verticalAlign=middle;whiteSpace=wrap;rounded=0;" vertex="1" parent="1">
          <mxGeometry x="130" y="70" width="60" height="30" as="geometry" />
        </mxCell>
        <mxCell id="0tyjuDTHWecdtASstA0M-10" value="Amazon EventBridge" style="text;html=1;align=center;verticalAlign=middle;whiteSpace=wrap;rounded=0;" vertex="1" parent="1">
          <mxGeometry x="610" y="425" width="60" height="30" as="geometry" />
        </mxCell>
        <mxCell id="0tyjuDTHWecdtASstA0M-11" value="" style="endArrow=classic;html=1;rounded=0;exitX=0.5;exitY=1;exitDx=0;exitDy=0;exitPerimeter=0;" edge="1" parent="1" source="0tyjuDTHWecdtASstA0M-2" target="0tyjuDTHWecdtASstA0M-5">
          <mxGeometry width="50" height="50" relative="1" as="geometry">
            <mxPoint x="400" y="300" as="sourcePoint" />
            <mxPoint x="450" y="250" as="targetPoint" />
          </mxGeometry>
        </mxCell>
        <mxCell id="0tyjuDTHWecdtASstA0M-12" value="" style="endArrow=classic;html=1;rounded=0;exitX=0.5;exitY=1;exitDx=0;exitDy=0;exitPerimeter=0;" edge="1" parent="1" source="0tyjuDTHWecdtASstA0M-1" target="0tyjuDTHWecdtASstA0M-2">
          <mxGeometry width="50" height="50" relative="1" as="geometry">
            <mxPoint x="400" y="300" as="sourcePoint" />
            <mxPoint x="450" y="250" as="targetPoint" />
          </mxGeometry>
        </mxCell>
        <mxCell id="0tyjuDTHWecdtASstA0M-13" value="" style="endArrow=classic;html=1;rounded=0;exitX=0;exitY=0.75;exitDx=0;exitDy=0;exitPerimeter=0;entryX=1;entryY=0.5;entryDx=0;entryDy=0;entryPerimeter=0;" edge="1" parent="1" target="0tyjuDTHWecdtASstA0M-8">
          <mxGeometry width="50" height="50" relative="1" as="geometry">
            <mxPoint x="338" y="438.5" as="sourcePoint" />
            <mxPoint x="280" y="440" as="targetPoint" />
          </mxGeometry>
        </mxCell>
        <mxCell id="0tyjuDTHWecdtASstA0M-14" value="" style="endArrow=classic;html=1;rounded=0;exitX=0;exitY=0.5;exitDx=0;exitDy=0;exitPerimeter=0;entryX=1;entryY=0.5;entryDx=0;entryDy=0;entryPerimeter=0;" edge="1" parent="1" source="0tyjuDTHWecdtASstA0M-6" target="0tyjuDTHWecdtASstA0M-7">
          <mxGeometry width="50" height="50" relative="1" as="geometry">
            <mxPoint x="480" y="419.99840000000006" as="sourcePoint" />
            <mxPoint x="420" y="442.18736" as="targetPoint" />
          </mxGeometry>
        </mxCell>
        <mxCell id="0tyjuDTHWecdtASstA0M-15" value="" style="edgeStyle=elbowEdgeStyle;elbow=vertical;endArrow=classic;html=1;curved=0;rounded=0;endSize=8;startSize=8;exitX=1;exitY=0.75;exitDx=0;exitDy=0;exitPerimeter=0;entryX=0.25;entryY=0;entryDx=0;entryDy=0;entryPerimeter=0;dashed=1;" edge="1" parent="1" source="0tyjuDTHWecdtASstA0M-5" target="0tyjuDTHWecdtASstA0M-7">
          <mxGeometry width="50" height="50" relative="1" as="geometry">
            <mxPoint x="280" y="360" as="sourcePoint" />
            <mxPoint x="380" y="400" as="targetPoint" />
            <Array as="points">
              <mxPoint x="380" y="340" />
            </Array>
          </mxGeometry>
        </mxCell>
        <mxCell id="0tyjuDTHWecdtASstA0M-16" value="" style="edgeStyle=elbowEdgeStyle;elbow=vertical;endArrow=classic;html=1;curved=0;rounded=0;endSize=8;startSize=8;exitX=0.75;exitY=0;exitDx=0;exitDy=0;exitPerimeter=0;dashed=1;" edge="1" parent="1" source="0tyjuDTHWecdtASstA0M-7" target="0tyjuDTHWecdtASstA0M-5">
          <mxGeometry width="50" height="50" relative="1" as="geometry">
            <mxPoint x="400" y="390" as="sourcePoint" />
            <mxPoint x="290" y="300" as="targetPoint" />
            <Array as="points">
              <mxPoint x="350" y="310" />
            </Array>
          </mxGeometry>
        </mxCell>
        <mxCell id="0tyjuDTHWecdtASstA0M-17" value="" style="endArrow=classic;startArrow=classic;html=1;rounded=0;entryX=0;entryY=0.5;entryDx=0;entryDy=0;entryPerimeter=0;" edge="1" parent="1" source="0tyjuDTHWecdtASstA0M-2" target="0tyjuDTHWecdtASstA0M-4">
          <mxGeometry width="50" height="50" relative="1" as="geometry">
            <mxPoint x="280" y="280" as="sourcePoint" />
            <mxPoint x="330" y="230" as="targetPoint" />
          </mxGeometry>
        </mxCell>
        <mxCell id="0tyjuDTHWecdtASstA0M-18" value="" style="endArrow=classic;startArrow=classic;html=1;rounded=0;" edge="1" parent="1" source="0tyjuDTHWecdtASstA0M-2">
          <mxGeometry width="50" height="50" relative="1" as="geometry">
            <mxPoint x="310" y="220" as="sourcePoint" />
            <mxPoint x="345" y="164" as="targetPoint" />
          </mxGeometry>
        </mxCell>
        <mxCell id="0tyjuDTHWecdtASstA0M-19" value="Custom Websites" style="text;html=1;align=center;verticalAlign=middle;whiteSpace=wrap;rounded=0;" vertex="1" parent="1">
          <mxGeometry x="410" y="145.7" width="60" height="30" as="geometry" />
        </mxCell>
        <mxCell id="0tyjuDTHWecdtASstA0M-20" value="Bedrock LLM (optional) to refine format to expected format" style="text;html=1;align=center;verticalAlign=middle;whiteSpace=wrap;rounded=0;" vertex="1" parent="1">
          <mxGeometry x="400" y="220" width="130" height="30" as="geometry" />
        </mxCell>
        <mxCell id="0tyjuDTHWecdtASstA0M-21" value="Fetch rules from customer website and convert to expected format" style="text;html=1;align=center;verticalAlign=middle;whiteSpace=wrap;rounded=0;" vertex="1" parent="1">
          <mxGeometry x="40" y="185" width="150" height="30" as="geometry" />
        </mxCell>
        <mxCell id="0tyjuDTHWecdtASstA0M-22" value="S3 bucket for DQ Rules" style="text;html=1;align=center;verticalAlign=middle;whiteSpace=wrap;rounded=0;" vertex="1" parent="1">
          <mxGeometry x="110" y="310" width="80" height="30" as="geometry" />
        </mxCell>
        <mxCell id="0tyjuDTHWecdtASstA0M-23" value="Bedrock Knowledge BAse" style="text;html=1;align=center;verticalAlign=middle;whiteSpace=wrap;rounded=0;" vertex="1" parent="1">
          <mxGeometry x="330" y="490" width="100" height="30" as="geometry" />
        </mxCell>
        <mxCell id="0tyjuDTHWecdtASstA0M-24" value="Ingestion job / sync job" style="text;html=1;align=center;verticalAlign=middle;whiteSpace=wrap;rounded=0;" vertex="1" parent="1">
          <mxGeometry x="420" y="401" width="100" height="30" as="geometry" />
        </mxCell>
        <mxCell id="0tyjuDTHWecdtASstA0M-25" value="vectors" style="text;html=1;align=center;verticalAlign=middle;whiteSpace=wrap;rounded=0;" vertex="1" parent="1">
          <mxGeometry x="260" y="400" width="100" height="30" as="geometry" />
        </mxCell>
        <mxCell id="0tyjuDTHWecdtASstA0M-26" value="OpenSearch / any vector DB" style="text;html=1;align=center;verticalAlign=middle;whiteSpace=wrap;rounded=0;" vertex="1" parent="1">
          <mxGeometry x="180" y="482" width="100" height="30" as="geometry" />
        </mxCell>
      </root>
    </mxGraphModel>
  </diagram>
</mxfile>
